# xmcd
#
# Track frame offsets: 
#        150
#        30778
#        52819
#        69499
#        94277
#        108477
#        135913
#        148204
#        168746
#        193154
#
# Disc length: 2836 seconds
#
# Revision: 0
# Processed by: cddbd v1.5.2PL0 Copyright (c) Steve Scherf et al.
# Submitted via: ExactAudioCopy v0.95b4
#
DISCID=880b120a
DTITLE=Mauro Di Domenico con Luis Sepúlveda, Ferruccio Amendola - Nati
DTITLE=in riva al mondo
DYEAR=2002
DGENRE=Latin
TTITLE0=Una partita persa
TTITLE1=Exilio
TTITLE2=Genova-Valparaiso
TTITLE3=Alegrias
TTITLE4=E facimm' sempe chest'
TTITLE5=Cumpleaño feliz
TTITLE6=Guajira
TTITLE7=Cuando amanece el dia
TTITLE8=Mercato nero
TTITLE9=Nati in riva al mondo
EXTD=
EXTT0=
EXTT1=
EXTT2=
EXTT3=
EXTT4=
EXTT5=
EXTT6=
EXTT7=
EXTT8=
EXTT9=
PLAYORDER=
